<svg width="42" height="36" viewBox="0 0 42 36" fill="none" xmlns="http://www.w3.org/2000/svg">
<path d="M17.5449 30.077C19.0884 32.723 22.9116 32.723 24.4551 30.0769L38.491 6.01548C40.0465 3.34885 38.123 4.81877e-07 35.0359 7.51766e-07L6.96415 3.20587e-06C3.87698 3.47576e-06 1.9535 3.34886 3.50903 6.01549L17.5449 30.077Z" fill="#424242"/>
<path fill-rule="evenodd" clip-rule="evenodd" d="M24.4818 30.0312C22.9383 32.6773 19.0884 32.723 17.5449 30.077L3.50905 6.01549C2.3424 4.01552 3.13269 1.63179 4.90316 0.564928C3.13269 1.63179 2.34239 4.01552 3.50904 6.01549L17.5449 30.077C19.0884 32.723 22.9116 32.723 24.4551 30.077L24.4818 30.0312ZM6.00446 0.112855C6.30873 0.0393319 6.62961 7.04982e-06 6.96415 7.02057e-06L17.5 0L17.4985 12.9182C17.4984 13.6267 17.6865 14.3225 18.0435 14.9344L24.4907 25.9844C25.2174 27.2299 25.2084 28.7857 24.4818 30.0312L38.491 6.01548C40.0465 3.34885 38.123 4.29657e-06 35.0359 4.56646e-06L17.5 0L6.96416 3.20587e-06C6.62961 3.23512e-06 6.30873 0.0393306 6.00446 0.112855Z" fill="white"/>
<path d="M25.6666 28L38.4909 6.01548C40.0465 3.34886 38.123 1.29782e-06 35.0358 1.56771e-06L16.2975 3.20587e-06C13.2103 3.47576e-06 11.2868 3.34886 12.8423 6.01549L25.6666 28Z" fill="white"/>
</svg>
